<svg width="34" height="28" viewBox="0 0 34 28" fill="none" xmlns="http://www.w3.org/2000/svg">
<path fill-rule="evenodd" clip-rule="evenodd" d="M0.707676 12.024C0.227855 12.5913 -0.00435646 13.2851 6.18651e-05 13.9741C-0.00435638 14.663 0.227855 15.3568 0.707676 15.9241L9.98226 26.8884C11.0494 28.15 12.9372 28.3076 14.1987 27.2404C15.4603 26.1733 15.6179 24.2855 14.5507 23.024L9.26517 16.7754L30.7755 16.7754C32.4323 16.7754 33.7755 15.4323 33.7755 13.7754C33.7755 12.1186 32.4323 10.7754 30.7755 10.7754L9.60117 10.7754L14.5507 4.92412C15.6179 3.66257 15.4603 1.7748 14.1987 0.707675C12.9372 -0.359453 11.0494 -0.201842 9.98226 1.05971L0.707676 12.024Z" fill="#4B4B4B"/>
</svg>
