<svg width="34" height="24" viewBox="0 0 34 24" fill="none" xmlns="http://www.w3.org/2000/svg">
<path fill-rule="evenodd" clip-rule="evenodd" d="M6.36783 16.5581H2C0.89543 16.5581 0 15.6627 0 14.5581V8.55813C0 7.45356 0.895431 6.55813 2 6.55813H6.36783L13.8973 0.646033C15.8658 -0.89965 18.75 0.50273 18.75 3.00558L18.75 20.1107C18.75 22.6135 15.8658 24.0159 13.8973 22.4702L6.36783 16.5581Z" fill="#A762E8"/>
<path fill-rule="evenodd" clip-rule="evenodd" d="M24 17.7511C26.1366 16.5607 27.5528 14.4771 27.5528 12.1055C27.5528 9.73398 26.1366 7.65029 24 6.45996V17.7511Z" fill="#A762E8"/>
<path fill-rule="evenodd" clip-rule="evenodd" d="M24 23.5032C26.6405 23.2351 29.1039 22.14 30.9188 20.2102C32.7685 18.2436 33.8815 15.4769 33.8815 12.0173C33.8815 5.87038 29.3115 1.6358 24.2293 0.437988L24 1.41098V2.44121C28.2908 3.54519 31.8815 7.08766 31.8815 12.0173C31.8815 15.0302 30.9221 17.2875 29.462 18.84C28.061 20.3296 26.1413 21.2319 24 21.4909V23.5032Z" fill="#A762E8"/>
</svg>
