<svg width="34" height="35" viewBox="0 0 34 35" fill="none" xmlns="http://www.w3.org/2000/svg">
<mask id="path-1-inside-1_117_2495" fill="white">
<path fill-rule="evenodd" clip-rule="evenodd" d="M21.5599 25.7333C24.2664 24.1676 26.0874 21.2413 26.0874 17.8896C26.0874 12.8886 22.0332 8.83447 17.0322 8.83447C12.0312 8.83447 7.97705 12.8886 7.97705 17.8896C7.97705 21.2414 9.79807 24.1677 12.5047 25.7334V27.9631C12.5047 29.0677 13.4001 29.9631 14.5047 29.9631H19.5599C20.6644 29.9631 21.5599 29.0677 21.5599 27.9631V25.7333Z"/>
</mask>
<path fill-rule="evenodd" clip-rule="evenodd" d="M21.5599 25.7333C24.2664 24.1676 26.0874 21.2413 26.0874 17.8896C26.0874 12.8886 22.0332 8.83447 17.0322 8.83447C12.0312 8.83447 7.97705 12.8886 7.97705 17.8896C7.97705 21.2414 9.79807 24.1677 12.5047 25.7334V27.9631C12.5047 29.0677 13.4001 29.9631 14.5047 29.9631H19.5599C20.6644 29.9631 21.5599 29.0677 21.5599 27.9631V25.7333Z" fill="#A762E8"/>
<path d="M21.5599 25.7333L21.1593 25.0408L20.7599 25.2719V25.7333H21.5599ZM12.5047 25.7334H13.3047V25.272L12.9053 25.0409L12.5047 25.7334ZM25.2874 17.8896C25.2874 20.9442 23.6288 23.6123 21.1593 25.0408L21.9605 26.4258C24.904 24.723 26.8874 21.5384 26.8874 17.8896H25.2874ZM17.0322 9.63447C21.5914 9.63447 25.2874 13.3304 25.2874 17.8896H26.8874C26.8874 12.4468 22.4751 8.03447 17.0322 8.03447V9.63447ZM8.77705 17.8896C8.77705 13.3304 12.473 9.63447 17.0322 9.63447V8.03447C11.5894 8.03447 7.17705 12.4468 7.17705 17.8896H8.77705ZM12.9053 25.0409C10.4357 23.6124 8.77705 20.9442 8.77705 17.8896H7.17705C7.17705 21.5385 9.16046 24.7231 12.1041 26.4259L12.9053 25.0409ZM13.3047 27.9631V25.7334H11.7047V27.9631H13.3047ZM14.5047 29.1631C13.842 29.1631 13.3047 28.6258 13.3047 27.9631H11.7047C11.7047 29.5095 12.9583 30.7631 14.5047 30.7631V29.1631ZM19.5599 29.1631H14.5047V30.7631H19.5599V29.1631ZM20.7599 27.9631C20.7599 28.6258 20.2226 29.1631 19.5599 29.1631V30.7631C21.1063 30.7631 22.3599 29.5095 22.3599 27.9631H20.7599ZM20.7599 25.7333V27.9631H22.3599V25.7333H20.7599Z" fill="white" mask="url(#path-1-inside-1_117_2495)"/>
<rect x="0.537292" y="18.9761" width="2.64958" height="3.94318" rx="0.6" transform="rotate(-92.588 0.537292 18.9761)" fill="#A762E8" stroke="white" stroke-width="0.8"/>
<rect x="-0.38153" y="-0.417654" width="2.64958" height="3.94318" rx="0.6" transform="matrix(0.0451541 -0.99898 -0.99898 -0.0451541 33.0627 18.5761)" fill="#A762E8" stroke="white" stroke-width="0.8"/>
<rect x="-0.565539" y="-0.0128841" width="2.64958" height="3.94318" rx="0.6" transform="matrix(-0.690818 -0.723028 -0.723028 0.690818 29.2098 6.81929)" fill="#A762E8" stroke="white" stroke-width="0.8"/>
<rect x="4.4464" y="7.21929" width="2.64958" height="3.94318" rx="0.6" transform="rotate(-46.3051 4.4464 7.21929)" fill="#A762E8" stroke="white" stroke-width="0.8"/>
<rect x="15.4" y="0.4" width="3.2" height="4.2" rx="0.6" fill="#A762E8" stroke="white" stroke-width="0.8"/>
<mask id="path-8-inside-2_117_2495" fill="white">
<path fill-rule="evenodd" clip-rule="evenodd" d="M14 31V32.7238C14 33.4418 14.582 34.0238 15.3 34.0238H18.7C19.418 34.0238 20 33.4418 20 32.7238V31H14Z"/>
</mask>
<path fill-rule="evenodd" clip-rule="evenodd" d="M14 31V32.7238C14 33.4418 14.582 34.0238 15.3 34.0238H18.7C19.418 34.0238 20 33.4418 20 32.7238V31H14Z" fill="#A762E8"/>
<path d="M14 31V30.2H13.2V31H14ZM20 31H20.8V30.2H20V31ZM14.8 32.7238V31H13.2V32.7238H14.8ZM15.3 33.2238C15.0239 33.2238 14.8 33 14.8 32.7238H13.2C13.2 33.8836 14.1402 34.8238 15.3 34.8238V33.2238ZM18.7 33.2238H15.3V34.8238H18.7V33.2238ZM19.2 32.7238C19.2 33 18.9761 33.2238 18.7 33.2238V34.8238C19.8598 34.8238 20.8 33.8836 20.8 32.7238H19.2ZM19.2 31V32.7238H20.8V31H19.2ZM20 30.2H14V31.8H20V30.2Z" fill="white" mask="url(#path-8-inside-2_117_2495)"/>
</svg>
