<svg width="45" height="45" viewBox="0 0 45 45" fill="none" xmlns="http://www.w3.org/2000/svg">
<path fill-rule="evenodd" clip-rule="evenodd" d="M22.5 35.9831C22.2045 35.9831 21.9119 35.9249 21.6389 35.8119C21.366 35.6988 21.1179 35.5331 20.909 35.3241C20.7001 35.1152 20.5343 34.8672 20.4212 34.5942C20.3082 34.3212 20.25 34.0286 20.25 33.7331C20.25 33.4377 20.3082 33.1451 20.4212 32.8721C20.5343 32.5991 20.7001 32.3511 20.909 32.1421C21.1179 31.9332 21.366 31.7675 21.6389 31.6544C21.9119 31.5413 22.2045 31.4831 22.5 31.4831C23.0967 31.4831 23.669 31.7202 24.091 32.1421C24.5129 32.5641 24.75 33.1364 24.75 33.7331C24.75 34.3299 24.5129 34.9022 24.091 35.3241C23.669 35.7461 23.0967 35.9831 22.5 35.9831ZM20.625 17.265C20.625 16.7677 20.8225 16.2908 21.1742 15.9392C21.5258 15.5876 22.0027 15.39 22.5 15.39C22.9973 15.39 23.4742 15.5876 23.8258 15.9392C24.1774 16.2908 24.375 16.7677 24.375 17.265V26.64C24.375 27.1373 24.1774 27.6142 23.8258 27.9658C23.4742 28.3175 22.9973 28.515 22.5 28.515C22.0027 28.515 21.5258 28.3175 21.1742 27.9658C20.8225 27.6142 20.625 27.1373 20.625 26.64V17.265ZM42.9637 35.2781L26.3981 6.58501C24.6656 3.58501 20.3344 3.58501 18.6019 6.58501L2.03623 35.2781C0.305602 38.2781 2.46748 42.0281 5.93435 42.0281H39.0656C42.5306 42.0281 44.6944 38.2781 42.9637 35.2781Z" fill="#FF9162"/>
</svg>
